<svg id="Capa_1" data-name="Capa 1" xmlns="http://www.w3.org/2000/svg" viewBox="0 0 24.42 32"><path d="M22.72,18.88a7.88,7.88,0,0,0-4.29-3.37h0l0,0a6.56,6.56,0,0,0-1.82-.26h-.34a3.84,3.84,0,0,1-.19-.88l0,0a11.39,11.39,0,0,0,2-5.92,12.31,12.31,0,0,0,.2-1.33,21.38,21.38,0,0,0,.09-2.35,4.19,4.19,0,0,0-2-3.6A7.52,7.52,0,0,0,12.21,0h-.06A7.57,7.57,0,0,0,8.07,1.13a4.21,4.21,0,0,0-2,3.6,21.23,21.23,0,0,0,.1,2.35c0,.41.1.84.19,1.32a11.49,11.49,0,0,0,2,5.93l0,0a3.84,3.84,0,0,1-.19.88H7.85A6.56,6.56,0,0,0,6,15.49l0,0H6a8,8,0,0,0-4.29,3.37A11,11,0,0,0,0,24.81v6.57A.62.62,0,0,0,.62,32H23.8a.62.62,0,0,0,.62-.62V24.81A10.93,10.93,0,0,0,22.72,18.88ZM12.21,7.69h0A6.23,6.23,0,0,0,8,9.51L8,9.55a.78.78,0,0,1-.21-.41c-.16-.72-.26-1.26-.32-1.75a13.23,13.23,0,0,1,4.76-1,13.23,13.23,0,0,1,4.76,1c-.06.49-.17,1-.32,1.75a.7.7,0,0,1-.22.41l-.06-.05A6.19,6.19,0,0,0,12.21,7.69Zm-1.69-3c0-2.27.87-3.5,1.69-3.5h0c.82,0,1.69,1.23,1.69,3.5V5.3a15.85,15.85,0,0,0-1.68-.14h0a15.85,15.85,0,0,0-1.68.14Zm6.59,0c0,.51,0,.95,0,1.38a14.76,14.76,0,0,0-1.95-.59V4.73a6.71,6.71,0,0,0-.68-3.15A3.37,3.37,0,0,1,17.11,4.73ZM10,1.58a6.71,6.71,0,0,0-.68,3.15v.79a14.3,14.3,0,0,0-1.95.59c0-.43,0-.87,0-1.38A3.37,3.37,0,0,1,10,1.58ZM8,10.77a1.28,1.28,0,0,0,.82-.35,5.1,5.1,0,0,1,3.34-1.5h0a5.08,5.08,0,0,1,3.32,1.5,1.33,1.33,0,0,0,.83.35,8.56,8.56,0,0,1-1.3,2.82,3.71,3.71,0,0,1-2.87,1.63,3.68,3.68,0,0,1-2.87-1.63A8.36,8.36,0,0,1,8,10.77Zm.58,5.69h0a.69.69,0,0,0,.28-.08L9,16.33a.65.65,0,0,0,.17-.2l0,0a6.81,6.81,0,0,0,.23-.68,4.46,4.46,0,0,0,2.79,1,4.41,4.41,0,0,0,2.79-1,5.25,5.25,0,0,0,.22.67h0a.67.67,0,0,0,.19.22l.06,0a.62.62,0,0,0,.3.09h.78l.42,0-2.82,3A3.23,3.23,0,0,0,12.45,19a3.27,3.27,0,0,0-2,.71l-3-3.2.43,0Zm1.79,5.81v0a2,2,0,1,1,2,2,2,2,0,0,1-.89-.21.83.83,0,0,0-.21-.06.62.62,0,0,0-.68.55l-.39,3.8H10Zm12.78,8.5H19.85V26.38a.61.61,0,0,0-.62-.61.61.61,0,0,0-.61.61v4.39H5.8V26.38a.61.61,0,0,0-.61-.61.61.61,0,0,0-.62.61v4.39H1.23v-6c0-3.69,2-7,4.79-8l3.59,3.83a3.37,3.37,0,0,0-.44,1.58l-.44,6.7V29a.61.61,0,0,0,.61.61h1.48a.62.62,0,0,0,.61-.55l.37-3.59q.3,0,.6.06a3.26,3.26,0,0,0,3.28-3.23,3.32,3.32,0,0,0-.61-1.91L18.4,16.8c2.79,1,4.79,4.32,4.79,8Z"/></svg>