<svg id="Capa_1" data-name="Capa 1" xmlns="http://www.w3.org/2000/svg" viewBox="0 0 32 32"><defs><style>.cls-1{fill:#01197e;}</style></defs><path class="cls-1" d="M12.38.25a.58.58,0,0,1,.19,0,1.19,1.19,0,0,1,.68.47,2.45,2.45,0,0,1,.46,1.54,1.87,1.87,0,0,1-.49,1.43,1.15,1.15,0,0,1-.83.36,1.53,1.53,0,0,1-.3,0,1.26,1.26,0,0,1-.85-.76A2.23,2.23,0,0,1,11,2.18a2.79,2.79,0,0,1,.28-1.1,1.57,1.57,0,0,1,.34-.47A1.06,1.06,0,0,1,12.15.3a.67.67,0,0,1,.23,0m0-.25a.84.84,0,0,0-.31.07,1.26,1.26,0,0,0-.59.37A1.56,1.56,0,0,0,11.1,1a3,3,0,0,0-.31,1.2A2.62,2.62,0,0,0,11,3.41a1.46,1.46,0,0,0,1.38.93,1.44,1.44,0,0,0,1-.43A2.16,2.16,0,0,0,14,2.3,2.72,2.72,0,0,0,13.45.61a1.46,1.46,0,0,0-.8-.56,1,1,0,0,0-.27,0Z"/><path class="cls-1" d="M9,1.25,9,1.5a.91.91,0,0,1,.75.82,1.28,1.28,0,0,1-.57,1.34c-.09,0-.1,0-.28,0s-.18,0-.27,0a1.13,1.13,0,0,1-.52-1.08A1.25,1.25,0,0,1,8.3,2a.92.92,0,0,1,.54-.49L9,1.5V1.25m0,0a.69.69,0,0,0-.22,0,1.22,1.22,0,0,0-.71.62,1.58,1.58,0,0,0-.18.67,1.36,1.36,0,0,0,.66,1.32A.68.68,0,0,0,8.93,4a.7.7,0,0,0,.39-.07A1.52,1.52,0,0,0,10,2.28a1.12,1.12,0,0,0-1-1Z"/><path class="cls-1" d="M6.64,3A.46.46,0,0,1,7,3.11a.89.89,0,0,1,.27.67,1,1,0,0,1-.13.53.56.56,0,0,1-.46.33.51.51,0,0,1-.42-.27,1.09,1.09,0,0,1,0-1.06A.78.78,0,0,1,6.5,3l.14,0m0-.25a1,1,0,0,0-.23,0A1.14,1.14,0,0,0,6,3.2c-.37.74,0,1.69.68,1.69h0a.77.77,0,0,0,.63-.46,1.21,1.21,0,0,0,.16-.65,1.17,1.17,0,0,0-.35-.86.73.73,0,0,0-.48-.2Z"/><path class="cls-1" d="M4.67,4.58A.45.45,0,0,1,5,4.73a1,1,0,0,1,.23.68c0,.28-.18.46-.37.46a.46.46,0,0,1-.33-.18.86.86,0,0,1-.18-.77.44.44,0,0,1,.25-.33h.08m0-.25a.41.41,0,0,0-.16,0c-.51.19-.6,1-.17,1.51a.67.67,0,0,0,.51.26c.3,0,.56-.25.62-.67a1.21,1.21,0,0,0-.3-.89.72.72,0,0,0-.5-.23Z"/><path class="cls-1" d="M10.78,5.13A3.36,3.36,0,0,1,14,6.8,4,4,0,0,1,14,10a8.35,8.35,0,0,1-1.74,2.81,7.84,7.84,0,0,1-1.21,1.06A7,7,0,0,0,9.4,15.34a4,4,0,0,0-.56,1.11,4.55,4.55,0,0,0,.1,2.77,8.17,8.17,0,0,0,1.63,2.65c.3.36.42.49,1.17,1.28a15.86,15.86,0,0,1,1.4,1.57,4.51,4.51,0,0,1,1.06,2.7,4,4,0,0,1-.46,2.06A4.1,4.1,0,0,1,11,31.65a3.49,3.49,0,0,1-.69.1,3.71,3.71,0,0,1-.72-.1A4.2,4.2,0,0,1,6.4,28.86a3,3,0,0,1-.2-1.22c0-.25,0-.59,0-.74a10,10,0,0,0-.1-2.28,36.32,36.32,0,0,0-.82-4.24,29.7,29.7,0,0,0-1-3.43,20.17,20.17,0,0,1-1.32-4.68,4.92,4.92,0,0,1,2-4.6,10,10,0,0,1,5.34-2.52,4.52,4.52,0,0,1,.51,0m0-.25a4.78,4.78,0,0,0-.53,0A10.28,10.28,0,0,0,4.77,7.48,5.12,5.12,0,0,0,2.7,12.3,19.65,19.65,0,0,0,4,17a29.14,29.14,0,0,1,1,3.4,36.12,36.12,0,0,1,.81,4.21A9.52,9.52,0,0,1,6,26.87c0,.16,0,.5,0,.77a3.41,3.41,0,0,0,.21,1.3,4.47,4.47,0,0,0,3.35,3,4.11,4.11,0,0,0,.77.1,3.86,3.86,0,0,0,.74-.11,4.34,4.34,0,0,0,3-2.3,4.29,4.29,0,0,0,.48-2.18,4.72,4.72,0,0,0-1.11-2.84A16,16,0,0,0,11.92,23c-.74-.77-.86-.91-1.16-1.26a7.78,7.78,0,0,1-1.58-2.57,4.31,4.31,0,0,1-.11-2.62,3.87,3.87,0,0,1,.53-1A7,7,0,0,1,11.2,14a8.33,8.33,0,0,0,1.25-1.09A8.6,8.6,0,0,0,14.24,10a4.26,4.26,0,0,0,0-3.34,3.59,3.59,0,0,0-3.42-1.81Z"/><path class="cls-1" d="M3.08,6c.11,0,.26.09.36.31a.92.92,0,0,1,0,.86s-.1.14-.19.14A.36.36,0,0,1,3,7.23a.9.9,0,0,1-.24-.46.53.53,0,0,1,0-.41c0-.13.11-.29.22-.32h.05m0-.25A.32.32,0,0,0,3,5.8c-.17,0-.3.21-.38.49a.75.75,0,0,0,0,.55,1.22,1.22,0,0,0,.31.58.56.56,0,0,0,.38.17c.43,0,.73-.69.42-1.36a.7.7,0,0,0-.59-.45Z"/><path class="cls-1" d="M19.32.06a1.4,1.4,0,0,0-.5.26,2.44,2.44,0,0,0-.75,1.42,4,4,0,0,0,0,1.15A1.76,1.76,0,0,0,19,4.18a1.44,1.44,0,0,0,1.82-.42,2.34,2.34,0,0,0,.42-1.59A2.68,2.68,0,0,0,20.88.94a1.67,1.67,0,0,0-1-.88A.73.73,0,0,0,19.32.06Z"/><path class="cls-1" d="M22.76,1.28a1.19,1.19,0,0,0-.76.87A2.06,2.06,0,0,0,22,3a1.42,1.42,0,0,0,.68.91.65.65,0,0,0,.39.08.74.74,0,0,0,.39-.07,1.52,1.52,0,0,0-.08-2.55A.92.92,0,0,0,22.76,1.28Z"/><path class="cls-1" d="M25.16,2.75a1,1,0,0,0-.59.7,2.12,2.12,0,0,0,0,.71c.19.71.88,1,1.32.49a1.09,1.09,0,0,0,.3-.83A1.19,1.19,0,0,0,26,3.09.73.73,0,0,0,25.16,2.75Z"/><path class="cls-1" d="M27.2,4.34a1,1,0,0,0-.64.73,1.36,1.36,0,0,0,.05.68.6.6,0,0,0,1,.16c.47-.47.38-1.39-.15-1.55A.46.46,0,0,0,27.2,4.34Z"/><path class="cls-1" d="M20.67,4.9a3.74,3.74,0,0,0-2.26,1c-1,1-1.25,2.55-.59,4.32a8.72,8.72,0,0,0,1.73,2.75A8.27,8.27,0,0,0,20.8,14,7.81,7.81,0,0,1,22,15a3.65,3.65,0,0,1,1,3.53,7.12,7.12,0,0,1-1.73,3.15c-.3.35-.43.49-1.17,1.26a19.17,19.17,0,0,0-1.42,1.6,4.71,4.71,0,0,0-1.1,2.84A4.19,4.19,0,0,0,18,29.57,4.32,4.32,0,0,0,21,31.89a2.9,2.9,0,0,0,1.52,0,4.46,4.46,0,0,0,3.34-3,3.61,3.61,0,0,0,.22-1.29c0-.26,0-.6,0-.78a9.52,9.52,0,0,1,.1-2.22A41.44,41.44,0,0,1,27,20.16a34.38,34.38,0,0,1,1.07-3.4,33.69,33.69,0,0,0,1-3.27A5.66,5.66,0,0,0,28.62,9a7.57,7.57,0,0,0-2-2A8.76,8.76,0,0,0,20.67,4.9Z"/><path class="cls-1" d="M28.7,5.83a1.07,1.07,0,0,0-.5,1c0,.52.32.87.69.76a.92.92,0,0,0,.43-.4,2.36,2.36,0,0,0,.17-.61A1.55,1.55,0,0,0,29.3,6,.46.46,0,0,0,28.7,5.83Z"/></svg>