<svg id="Capa_1" data-name="Capa 1" xmlns="http://www.w3.org/2000/svg" viewBox="0 0 32 32"><defs><style>.cls-1{fill:#01197e;}</style></defs><path class="cls-1" d="M12.07.07a1.26,1.26,0,0,0-.59.37A1.56,1.56,0,0,0,11.1,1a3,3,0,0,0-.31,1.2A2.62,2.62,0,0,0,11,3.41a1.48,1.48,0,0,0,1,.89,1.39,1.39,0,0,0,1.37-.39A2.16,2.16,0,0,0,14,2.3,2.72,2.72,0,0,0,13.45.61a1.46,1.46,0,0,0-.8-.56A.73.73,0,0,0,12.07.07Z"/><path class="cls-1" d="M8.78,1.28a1.22,1.22,0,0,0-.71.62,1.58,1.58,0,0,0-.18.67,1.36,1.36,0,0,0,.66,1.32A.68.68,0,0,0,8.93,4a.7.7,0,0,0,.39-.07A1.52,1.52,0,0,0,10,2.28a1.12,1.12,0,0,0-1-1A.76.76,0,0,0,8.78,1.28Z"/><path class="cls-1" d="M6.41,2.76A1.14,1.14,0,0,0,6,3.2c-.38.76,0,1.74.73,1.69a.77.77,0,0,0,.63-.46,1.21,1.21,0,0,0,.16-.65,1.17,1.17,0,0,0-.35-.86A.7.7,0,0,0,6.41,2.76Z"/><path class="cls-1" d="M4.51,4.35c-.51.19-.6,1-.17,1.51s1,.26,1.13-.41a1.21,1.21,0,0,0-.3-.89A.67.67,0,0,0,4.51,4.35Z"/><path class="cls-1" d="M10.25,4.9A10.28,10.28,0,0,0,4.77,7.48,5.12,5.12,0,0,0,2.7,12.3,19.65,19.65,0,0,0,4,17a29.14,29.14,0,0,1,1,3.4,36.12,36.12,0,0,1,.81,4.21A9.52,9.52,0,0,1,6,26.87c0,.16,0,.5,0,.77a3.41,3.41,0,0,0,.21,1.3,4.47,4.47,0,0,0,3.35,3,2.86,2.86,0,0,0,1.51,0,4.34,4.34,0,0,0,3-2.3,4.29,4.29,0,0,0,.48-2.18,4.72,4.72,0,0,0-1.11-2.84A16,16,0,0,0,11.92,23c-.74-.77-.86-.91-1.16-1.26a7.78,7.78,0,0,1-1.58-2.57,4.31,4.31,0,0,1-.11-2.62,3.87,3.87,0,0,1,.53-1A7,7,0,0,1,11.2,14a8.33,8.33,0,0,0,1.25-1.09A8.6,8.6,0,0,0,14.24,10a4.26,4.26,0,0,0,0-3.34C13.54,5.39,12.11,4.74,10.25,4.9Z"/><path class="cls-1" d="M3,5.8c-.17,0-.3.21-.38.49a.75.75,0,0,0,0,.55,1.22,1.22,0,0,0,.31.58c.6.54,1.19-.34.8-1.19A.65.65,0,0,0,3,5.8Z"/><path class="cls-1" d="M19.6.25a.67.67,0,0,1,.23,0,1.42,1.42,0,0,1,.82.75A2.38,2.38,0,0,1,21,2.18a2.18,2.18,0,0,1-.37,1.43,1.22,1.22,0,0,1-1,.48A1.11,1.11,0,0,1,19.08,4a1.51,1.51,0,0,1-.75-1.12,3.42,3.42,0,0,1,0-1.06A2.19,2.19,0,0,1,19,.51,1.12,1.12,0,0,1,19.4.29a.63.63,0,0,1,.2,0m0-.25a.88.88,0,0,0-.28.06,1.4,1.4,0,0,0-.5.26,2.44,2.44,0,0,0-.75,1.42,4,4,0,0,0,0,1.15A1.76,1.76,0,0,0,19,4.18a1.4,1.4,0,0,0,.66.16,1.45,1.45,0,0,0,1.16-.58,2.34,2.34,0,0,0,.42-1.59A2.68,2.68,0,0,0,20.88.94a1.67,1.67,0,0,0-1-.88A.93.93,0,0,0,19.6,0Z"/><path class="cls-1" d="M23,1.5a.7.7,0,0,1,.3.07,1.17,1.17,0,0,1,.59,1.09,1.07,1.07,0,0,1-.51,1c-.09,0-.1,0-.28,0a.44.44,0,0,1-.27,0,1.15,1.15,0,0,1-.55-.75,1.65,1.65,0,0,1,0-.7.93.93,0,0,1,.59-.69l.13,0m0-.25a.64.64,0,0,0-.2,0,1.19,1.19,0,0,0-.76.87A2.06,2.06,0,0,0,22,3a1.42,1.42,0,0,0,.68.91.65.65,0,0,0,.39.08.74.74,0,0,0,.39-.07,1.52,1.52,0,0,0-.08-2.55A1,1,0,0,0,23,1.25Z"/><path class="cls-1" d="M25.35,3a.51.51,0,0,1,.42.26,1,1,0,0,1,.17.59.84.84,0,0,1-.23.66.44.44,0,0,1-.34.16.64.64,0,0,1-.55-.54,1.62,1.62,0,0,1,0-.58A.72.72,0,0,1,25.23,3l.12,0m0-.25-.19,0a1,1,0,0,0-.59.7,2.12,2.12,0,0,0,0,.71.9.9,0,0,0,.8.73.67.67,0,0,0,.52-.24,1.09,1.09,0,0,0,.3-.83A1.19,1.19,0,0,0,26,3.09a.78.78,0,0,0-.63-.37Z"/><path class="cls-1" d="M27.32,4.58l.09,0a.45.45,0,0,1,.25.32.88.88,0,0,1-.21.81.44.44,0,0,1-.3.14.38.38,0,0,1-.32-.24,1.12,1.12,0,0,1,0-.5.7.7,0,0,1,.45-.54h.06m0-.25H27.2a1,1,0,0,0-.64.73,1.36,1.36,0,0,0,.05.68.61.61,0,0,0,.54.37.7.7,0,0,0,.48-.21c.47-.47.38-1.39-.15-1.55l-.16,0Z"/><path class="cls-1" d="M21.2,5.13A8.88,8.88,0,0,1,26.47,7.2a7.13,7.13,0,0,1,1.94,2,5.47,5.47,0,0,1,.45,4.26,33.74,33.74,0,0,1-1,3.25,35.11,35.11,0,0,0-1.08,3.42,38.75,38.75,0,0,0-.88,4.52,9,9,0,0,0-.1,2.28c0,.15,0,.48,0,.75a3.38,3.38,0,0,1-.2,1.21,4.24,4.24,0,0,1-3.16,2.79,3.92,3.92,0,0,1-.72.1,3.47,3.47,0,0,1-.7-.1,4.1,4.1,0,0,1-2.77-2.19,4,4,0,0,1-.45-2,4.49,4.49,0,0,1,1.05-2.7,17.36,17.36,0,0,1,1.4-1.57c.75-.79.87-.92,1.18-1.28a7.36,7.36,0,0,0,1.79-3.26,4,4,0,0,0-1-3.76,9,9,0,0,0-1.23-1,7.82,7.82,0,0,1-1.22-1.06,8.65,8.65,0,0,1-1.68-2.66C17.42,8.42,17.61,7,18.58,6a3.5,3.5,0,0,1,2.11-.89,4.35,4.35,0,0,1,.51,0m0-.25a4.61,4.61,0,0,0-.53,0,3.74,3.74,0,0,0-2.26,1c-1,1-1.25,2.55-.59,4.32a8.72,8.72,0,0,0,1.73,2.75A8.27,8.27,0,0,0,20.8,14,7.81,7.81,0,0,1,22,15a3.65,3.65,0,0,1,1,3.53,7.12,7.12,0,0,1-1.73,3.15c-.3.35-.43.49-1.17,1.26a19.17,19.17,0,0,0-1.42,1.6,4.71,4.71,0,0,0-1.1,2.84A4.19,4.19,0,0,0,18,29.57,4.32,4.32,0,0,0,21,31.89a4.05,4.05,0,0,0,.75.11,4.11,4.11,0,0,0,.77-.1,4.46,4.46,0,0,0,3.34-3,3.61,3.61,0,0,0,.22-1.29c0-.26,0-.6,0-.78a9.52,9.52,0,0,1,.1-2.22A41.44,41.44,0,0,1,27,20.16a34.38,34.38,0,0,1,1.07-3.4,33.69,33.69,0,0,0,1-3.27A5.66,5.66,0,0,0,28.62,9a7.57,7.57,0,0,0-2-2A9.21,9.21,0,0,0,21.2,4.88Z"/><path class="cls-1" d="M28.91,6a.23.23,0,0,1,.19.12,2,2,0,0,1,.14.41,1.81,1.81,0,0,1-.15.5.69.69,0,0,1-.27.27h-.07c-.16,0-.3-.24-.3-.53a.84.84,0,0,1,.35-.75l.11,0m0-.25a.54.54,0,0,0-.21,0,1.07,1.07,0,0,0-.5,1c0,.45.25.78.55.78l.14,0a.92.92,0,0,0,.43-.4,2.36,2.36,0,0,0,.17-.61A1.55,1.55,0,0,0,29.3,6a.48.48,0,0,0-.39-.22Z"/></svg>